<mxfile host="app.diagrams.net" modified="2021-11-04T10:49:45.501Z" agent="5.0 (Windows NT 10.0; Win64; x64) AppleWebKit/537.36 (KHTML, like Gecko) Chrome/95.0.4638.69 Safari/537.36" etag="64lANM3l6CsIZr8pS3X1" version="15.6.8" type="github">
  <diagram name="Page-1" id="edf60f1a-56cd-e834-aa8a-f176f3a09ee4">
    <mxGraphModel dx="2000" dy="834" grid="1" gridSize="10" guides="1" tooltips="1" connect="1" arrows="1" fold="1" page="1" pageScale="1" pageWidth="1100" pageHeight="850" background="none" math="0" shadow="0">
      <root>
        <mxCell id="0" />
        <mxCell id="1" parent="0" />
        <mxCell id="MNtgQwbULnPq8PXe23CX-3" value="" style="edgeStyle=orthogonalEdgeStyle;rounded=0;orthogonalLoop=1;jettySize=auto;html=1;" parent="1" source="MNtgQwbULnPq8PXe23CX-1" target="MNtgQwbULnPq8PXe23CX-2" edge="1">
          <mxGeometry relative="1" as="geometry" />
        </mxCell>
        <mxCell id="MNtgQwbULnPq8PXe23CX-1" value="user select main search" style="rounded=1;whiteSpace=wrap;html=1;" parent="1" vertex="1">
          <mxGeometry x="150" y="40" width="130" height="50" as="geometry" />
        </mxCell>
        <mxCell id="MNtgQwbULnPq8PXe23CX-2" value="user type in recipe name / ingredient / device" style="rounded=1;whiteSpace=wrap;html=1;" parent="1" vertex="1">
          <mxGeometry x="145" y="120" width="140" height="60" as="geometry" />
        </mxCell>
        <mxCell id="MNtgQwbULnPq8PXe23CX-8" value="Error message&amp;nbsp;&lt;br&gt;No match" style="rounded=1;whiteSpace=wrap;html=1;fontSize=11;" parent="1" vertex="1">
          <mxGeometry x="400" y="480" width="120" height="60" as="geometry" />
        </mxCell>
        <mxCell id="MNtgQwbULnPq8PXe23CX-9" value="no" style="text;html=1;align=center;verticalAlign=middle;resizable=0;points=[];autosize=1;strokeColor=none;fillColor=none;fontSize=12;" parent="1" vertex="1">
          <mxGeometry x="330" y="480" width="30" height="20" as="geometry" />
        </mxCell>
        <mxCell id="MNtgQwbULnPq8PXe23CX-11" value="hide cards and ingredients / devices / ustensils updated" style="whiteSpace=wrap;html=1;rounded=1;fontSize=11;" parent="1" vertex="1">
          <mxGeometry x="630" y="480" width="120" height="60" as="geometry" />
        </mxCell>
        <mxCell id="MNtgQwbULnPq8PXe23CX-13" value="string&amp;nbsp; length 3&amp;nbsp;&lt;br&gt;or more" style="rhombus;whiteSpace=wrap;html=1;fontSize=11;" parent="1" vertex="1">
          <mxGeometry x="150" y="330" width="130" height="80" as="geometry" />
        </mxCell>
        <mxCell id="60e70716793133e9-5" value="&lt;font style=&quot;font-size: 11px&quot;&gt;recipe / ingredient &lt;br&gt;/ device is&lt;br&gt;in Database&lt;/font&gt;" style="rhombus;whiteSpace=wrap;html=1;rounded=0;shadow=1;labelBackgroundColor=none;strokeWidth=1;fontFamily=Verdana;fontSize=8;align=center;" parent="1" vertex="1">
          <mxGeometry x="120" y="465" width="190" height="90" as="geometry" />
        </mxCell>
        <mxCell id="MNtgQwbULnPq8PXe23CX-16" value="nothing will happen" style="rounded=1;whiteSpace=wrap;html=1;fontSize=11;" parent="1" vertex="1">
          <mxGeometry x="400" y="340" width="120" height="60" as="geometry" />
        </mxCell>
        <mxCell id="MNtgQwbULnPq8PXe23CX-20" value="" style="endArrow=classic;html=1;rounded=0;fontSize=11;entryX=0;entryY=0.5;entryDx=0;entryDy=0;exitX=1;exitY=0.5;exitDx=0;exitDy=0;" parent="1" target="MNtgQwbULnPq8PXe23CX-16" edge="1" source="MNtgQwbULnPq8PXe23CX-13">
          <mxGeometry width="50" height="50" relative="1" as="geometry">
            <mxPoint x="280" y="240" as="sourcePoint" />
            <mxPoint x="360" y="180" as="targetPoint" />
          </mxGeometry>
        </mxCell>
        <mxCell id="ACHiZ2PeyGqHKieFn02l-6" value="string tolowercase" style="rhombus;whiteSpace=wrap;html=1;fontSize=11;" vertex="1" parent="1">
          <mxGeometry x="150" y="210" width="130" height="80" as="geometry" />
        </mxCell>
        <mxCell id="ACHiZ2PeyGqHKieFn02l-7" value="" style="endArrow=classic;html=1;rounded=0;exitX=0.5;exitY=1;exitDx=0;exitDy=0;entryX=0.5;entryY=0;entryDx=0;entryDy=0;" edge="1" parent="1" source="MNtgQwbULnPq8PXe23CX-2" target="ACHiZ2PeyGqHKieFn02l-6">
          <mxGeometry width="50" height="50" relative="1" as="geometry">
            <mxPoint x="520" y="360" as="sourcePoint" />
            <mxPoint x="570" y="310" as="targetPoint" />
          </mxGeometry>
        </mxCell>
        <mxCell id="ACHiZ2PeyGqHKieFn02l-8" value="" style="endArrow=classic;html=1;rounded=0;exitX=0.5;exitY=1;exitDx=0;exitDy=0;entryX=0.5;entryY=0;entryDx=0;entryDy=0;" edge="1" parent="1" source="ACHiZ2PeyGqHKieFn02l-6" target="MNtgQwbULnPq8PXe23CX-13">
          <mxGeometry width="50" height="50" relative="1" as="geometry">
            <mxPoint x="520" y="360" as="sourcePoint" />
            <mxPoint x="570" y="310" as="targetPoint" />
          </mxGeometry>
        </mxCell>
        <mxCell id="ACHiZ2PeyGqHKieFn02l-10" value="" style="endArrow=classic;html=1;rounded=0;exitX=0.5;exitY=1;exitDx=0;exitDy=0;" edge="1" parent="1" source="MNtgQwbULnPq8PXe23CX-13" target="60e70716793133e9-5">
          <mxGeometry width="50" height="50" relative="1" as="geometry">
            <mxPoint x="520" y="460" as="sourcePoint" />
            <mxPoint x="570" y="410" as="targetPoint" />
          </mxGeometry>
        </mxCell>
        <mxCell id="ACHiZ2PeyGqHKieFn02l-11" value="" style="endArrow=classic;html=1;rounded=0;exitX=1;exitY=0.5;exitDx=0;exitDy=0;" edge="1" parent="1" source="60e70716793133e9-5">
          <mxGeometry width="50" height="50" relative="1" as="geometry">
            <mxPoint x="520" y="460" as="sourcePoint" />
            <mxPoint x="400" y="510" as="targetPoint" />
          </mxGeometry>
        </mxCell>
        <mxCell id="ACHiZ2PeyGqHKieFn02l-12" value="" style="endArrow=classic;html=1;rounded=0;exitX=1;exitY=0.5;exitDx=0;exitDy=0;entryX=0;entryY=0.5;entryDx=0;entryDy=0;" edge="1" parent="1" source="MNtgQwbULnPq8PXe23CX-8" target="MNtgQwbULnPq8PXe23CX-11">
          <mxGeometry width="50" height="50" relative="1" as="geometry">
            <mxPoint x="520" y="460" as="sourcePoint" />
            <mxPoint x="570" y="410" as="targetPoint" />
          </mxGeometry>
        </mxCell>
        <mxCell id="ACHiZ2PeyGqHKieFn02l-13" value="no" style="text;html=1;align=center;verticalAlign=middle;resizable=0;points=[];autosize=1;strokeColor=none;fillColor=none;fontSize=12;" vertex="1" parent="1">
          <mxGeometry x="320" y="340" width="30" height="20" as="geometry" />
        </mxCell>
        <mxCell id="ACHiZ2PeyGqHKieFn02l-15" value="hide cards /&lt;br&gt;Ingredients /&lt;br&gt;devices / ustensils&lt;br&gt;&amp;nbsp;which don&#39;t match" style="rounded=1;whiteSpace=wrap;html=1;" vertex="1" parent="1">
          <mxGeometry x="120" y="610" width="190" height="100" as="geometry" />
        </mxCell>
        <mxCell id="ACHiZ2PeyGqHKieFn02l-16" value="" style="endArrow=classic;html=1;rounded=0;exitX=0.5;exitY=1;exitDx=0;exitDy=0;entryX=0.5;entryY=0;entryDx=0;entryDy=0;" edge="1" parent="1" source="60e70716793133e9-5" target="ACHiZ2PeyGqHKieFn02l-15">
          <mxGeometry width="50" height="50" relative="1" as="geometry">
            <mxPoint x="520" y="620" as="sourcePoint" />
            <mxPoint x="570" y="570" as="targetPoint" />
          </mxGeometry>
        </mxCell>
        <mxCell id="ACHiZ2PeyGqHKieFn02l-18" value="user select recipe" style="rounded=1;whiteSpace=wrap;html=1;" vertex="1" parent="1">
          <mxGeometry x="155" y="780" width="120" height="60" as="geometry" />
        </mxCell>
        <mxCell id="ACHiZ2PeyGqHKieFn02l-20" value="user selects&amp;nbsp;&lt;br&gt;ingredients /&lt;br&gt;ustensils /&amp;nbsp;" style="rounded=1;whiteSpace=wrap;html=1;" vertex="1" parent="1">
          <mxGeometry x="400" y="780" width="120" height="60" as="geometry" />
        </mxCell>
        <mxCell id="ACHiZ2PeyGqHKieFn02l-21" value="" style="endArrow=classic;html=1;rounded=0;exitX=0.5;exitY=1;exitDx=0;exitDy=0;entryX=0.5;entryY=0;entryDx=0;entryDy=0;" edge="1" parent="1" source="ACHiZ2PeyGqHKieFn02l-15" target="ACHiZ2PeyGqHKieFn02l-18">
          <mxGeometry width="50" height="50" relative="1" as="geometry">
            <mxPoint x="520" y="710" as="sourcePoint" />
            <mxPoint x="570" y="660" as="targetPoint" />
          </mxGeometry>
        </mxCell>
        <mxCell id="ACHiZ2PeyGqHKieFn02l-22" value="" style="endArrow=classic;html=1;rounded=0;exitX=0.5;exitY=1;exitDx=0;exitDy=0;entryX=0;entryY=0.5;entryDx=0;entryDy=0;" edge="1" parent="1" source="ACHiZ2PeyGqHKieFn02l-15" target="ACHiZ2PeyGqHKieFn02l-20">
          <mxGeometry width="50" height="50" relative="1" as="geometry">
            <mxPoint x="520" y="710" as="sourcePoint" />
            <mxPoint x="570" y="660" as="targetPoint" />
          </mxGeometry>
        </mxCell>
        <mxCell id="ACHiZ2PeyGqHKieFn02l-23" value="hide cards /&lt;br&gt;Ingredients /&lt;br&gt;devices / ustensils&lt;br&gt;&amp;nbsp;which don&#39;t match" style="rounded=1;whiteSpace=wrap;html=1;" vertex="1" parent="1">
          <mxGeometry x="365" y="930" width="190" height="100" as="geometry" />
        </mxCell>
        <mxCell id="ACHiZ2PeyGqHKieFn02l-24" value="" style="endArrow=classic;html=1;rounded=0;exitX=0.5;exitY=1;exitDx=0;exitDy=0;entryX=0.5;entryY=0;entryDx=0;entryDy=0;" edge="1" parent="1" source="ACHiZ2PeyGqHKieFn02l-20" target="ACHiZ2PeyGqHKieFn02l-23">
          <mxGeometry width="50" height="50" relative="1" as="geometry">
            <mxPoint x="520" y="1010" as="sourcePoint" />
            <mxPoint x="570" y="960" as="targetPoint" />
          </mxGeometry>
        </mxCell>
        <mxCell id="ACHiZ2PeyGqHKieFn02l-25" value="user select recipe" style="rounded=1;whiteSpace=wrap;html=1;" vertex="1" parent="1">
          <mxGeometry x="400" y="1080" width="120" height="60" as="geometry" />
        </mxCell>
        <mxCell id="ACHiZ2PeyGqHKieFn02l-26" value="" style="endArrow=classic;html=1;rounded=0;exitX=0.5;exitY=1;exitDx=0;exitDy=0;entryX=0.5;entryY=0;entryDx=0;entryDy=0;" edge="1" parent="1" source="ACHiZ2PeyGqHKieFn02l-23" target="ACHiZ2PeyGqHKieFn02l-25">
          <mxGeometry width="50" height="50" relative="1" as="geometry">
            <mxPoint x="520" y="1010" as="sourcePoint" />
            <mxPoint x="570" y="960" as="targetPoint" />
          </mxGeometry>
        </mxCell>
      </root>
    </mxGraphModel>
  </diagram>
</mxfile>
